<?xml version="1.0" standalone="no"?>
<!DOCTYPE svg PUBLIC "-//W3C//DTD SVG 20010904//EN"
 "http://www.w3.org/TR/2001/REC-SVG-20010904/DTD/svg10.dtd">
<svg version="1.0" xmlns="http://www.w3.org/2000/svg"
 width="40.000000pt" height="41.000000pt" viewBox="0 0 40.000000 41.000000"
 preserveAspectRatio="xMidYMid meet">

<g transform="translate(0.000000,41.000000) scale(0.100000,-0.100000)"
fill="#000000" stroke="none">
<path d="M147 342 c-27 -30 -22 -87 9 -111 34 -26 54 -26 88 0 35 27 37 90 4
113 -30 22 -81 20 -101 -2z m78 -4 c47 -21 41 -91 -9 -104 -33 -8 -64 11 -72
43 -6 21 -1 31 20 50 32 27 28 26 61 11z"/>
<path d="M138 164 c-32 -17 -58 -62 -57 -96 0 -19 3 -17 13 11 18 49 59 81
106 81 47 0 88 -32 106 -81 11 -30 13 -31 13 -9 1 82 -104 136 -181 94z"/>
</g>
</svg>
